<svg xmlns="http://www.w3.org/2000/svg" width="512" height="512" viewBox="0 0 512 512" role="img" aria-labelledby="title desc">
  <title id="title">nc-check logo</title>
  <desc id="desc">Simple earth-science logo with a globe, grid lines, and a check mark.</desc>

  <defs>
    <linearGradient id="bg" x1="0" y1="0" x2="1" y2="1">
      <stop offset="0%" stop-color="#0c4a6e"/>
      <stop offset="100%" stop-color="#0f766e"/>
    </linearGradient>
    <linearGradient id="ocean" x1="0" y1="0" x2="1" y2="1">
      <stop offset="0%" stop-color="#0b5f8a"/>
      <stop offset="100%" stop-color="#0c8a83"/>
    </linearGradient>
    <filter id="softShadow" x="-20%" y="-20%" width="140%" height="140%">
      <feDropShadow dx="0" dy="8" stdDeviation="10" flood-color="#042f2e" flood-opacity="0.25"/>
    </filter>
    <clipPath id="globeClip">
      <circle cx="256" cy="240" r="154"/>
    </clipPath>
  </defs>

  <rect x="24" y="24" width="464" height="464" rx="96" fill="url(#bg)"/>

  <g filter="url(#softShadow)">
    <circle cx="256" cy="240" r="154" fill="url(#ocean)" stroke="#99f6e4" stroke-opacity="0.45" stroke-width="4"/>

    <g clip-path="url(#globeClip)" fill="none" stroke="#d1fae5" stroke-opacity="0.35" stroke-width="3">
      <ellipse cx="256" cy="240" rx="132" ry="52"/>
      <ellipse cx="256" cy="240" rx="132" ry="94"/>
      <ellipse cx="256" cy="240" rx="132" ry="136"/>
      <ellipse cx="256" cy="240" rx="102" ry="154"/>
      <ellipse cx="256" cy="240" rx="62" ry="154"/>
    </g>

    <path d="M161 238c28-40 80-64 133-58 39 5 75 25 100 56-18 32-50 57-90 68-56 15-117-2-158-43 3-8 8-16 15-23z" fill="#34d399" fill-opacity="0.45"/>
    <path d="M145 270c30 37 75 60 124 60 38 0 73-13 102-34-24 48-73 82-130 82-56 0-105-33-129-79 11-11 22-20 33-29z" fill="#67e8f9" fill-opacity="0.35"/>

    <path d="M180 239l49 50 102-111" fill="none" stroke="#f0fdfa" stroke-width="22" stroke-linecap="round" stroke-linejoin="round"/>
    <path d="M180 239l49 50 102-111" fill="none" stroke="#14b8a6" stroke-width="10" stroke-linecap="round" stroke-linejoin="round"/>
  </g>

  <path d="M123 379c19-10 38-14 58-12 13 2 25 7 38 7 18 1 35-7 52-16 20-10 42-16 64-13 22 3 37 14 54 27" fill="none" stroke="#ccfbf1" stroke-opacity="0.55" stroke-width="8" stroke-linecap="round"/>
  <path d="M131 408c20-10 41-13 61-10 13 2 24 7 37 7 18 1 37-7 55-16 22-11 45-16 68-12 20 3 35 12 49 22" fill="none" stroke="#99f6e4" stroke-opacity="0.45" stroke-width="6" stroke-linecap="round"/>
</svg>
